<svg width="84" height="84" viewBox="0 0 84 84" fill="none" xmlns="http://www.w3.org/2000/svg">
<path d="M7.28232 38.5462C7.24064 38.0661 7.2992 37.5827 7.45429 37.1264C7.60937 36.6702 7.8576 36.2512 8.18321 35.896C8.50883 35.5408 8.90472 35.2572 9.34578 35.0631C9.78683 34.869 10.2634 34.7687 10.7453 34.7686H17.3843C18.3065 34.7686 19.1908 35.1349 19.8429 35.7869C20.4949 36.439 20.8612 37.3233 20.8612 38.2455V71.2756C20.8612 72.1978 20.4949 73.0821 19.8429 73.7342C19.1908 74.3862 18.3065 74.7525 17.3843 74.7525H13.6189C12.7487 74.7527 11.91 74.4266 11.2686 73.8386C10.6271 73.2505 10.2295 72.4433 10.1542 71.5764L7.28232 38.5462ZM31.2918 37.1589C31.2918 35.7056 32.1958 34.4053 33.5083 33.7864C36.375 32.4339 41.2582 29.7167 43.4608 26.0434C46.2997 21.3079 46.8351 12.7531 46.922 10.7939C46.9342 10.5192 46.9272 10.2445 46.9637 9.97335C47.4349 6.5782 53.987 10.5436 56.499 14.7367C57.8637 17.0105 58.0376 19.9989 57.895 22.3336C57.7403 24.83 57.0084 27.2412 56.2904 29.6367L54.7606 34.7425H73.6348C74.1719 34.7425 74.7018 34.8669 75.1828 35.1061C75.6639 35.3452 76.0829 35.6926 76.4071 36.1209C76.7314 36.5492 76.9519 37.0468 77.0515 37.5747C77.1511 38.1026 77.1271 38.6463 76.9812 39.1634L67.6459 72.2214C67.4398 72.9504 67.0012 73.5923 66.3968 74.0492C65.7924 74.5061 65.0553 74.753 64.2976 74.7525H34.7687C33.8465 74.7525 32.9622 74.3862 32.3101 73.7342C31.6581 73.0821 31.2918 72.1978 31.2918 71.2756V37.1589Z" stroke="#215540" stroke-width="6" stroke-linecap="round" stroke-linejoin="round"/>
</svg>
