<svg width="72" height="72" viewBox="0 0 72 72" fill="none" xmlns="http://www.w3.org/2000/svg">
<path d="M59.6285 8.94433V20.87M65.5913 14.9072H53.6656M11.9257 50.6843V56.6471M14.9071 53.6657H8.94427M29.6264 46.2121C29.3602 45.1803 28.8224 44.2387 28.069 43.4853C27.3155 42.7318 26.3739 42.194 25.3421 41.9278L7.05107 37.2112C6.739 37.1226 6.46435 36.9347 6.26878 36.6759C6.07321 36.4171 5.96739 36.1015 5.96739 35.7771C5.96739 35.4527 6.07321 35.1372 6.26878 34.8784C6.46435 34.6196 6.739 34.4316 7.05107 34.3431L25.3421 29.6235C26.3735 29.3576 27.3149 28.8202 28.0683 28.0673C28.8218 27.3144 29.3598 26.3734 29.6264 25.3422L34.343 7.05112C34.4307 6.73783 34.6184 6.46182 34.8776 6.2652C35.1368 6.06858 35.4532 5.96216 35.7786 5.96216C36.1039 5.96216 36.4203 6.06858 36.6795 6.2652C36.9387 6.46182 37.1264 6.73783 37.2141 7.05112L41.9278 25.3422C42.1939 26.3739 42.7317 27.3156 43.4852 28.069C44.2387 28.8225 45.1803 29.3603 46.2121 29.6265L64.5031 34.3401C64.8176 34.4269 65.095 34.6144 65.2927 34.874C65.4904 35.1336 65.5974 35.4509 65.5974 35.7771C65.5974 36.1034 65.4904 36.4207 65.2927 36.6803C65.095 36.9399 64.8176 37.1274 64.5031 37.2142L46.2121 41.9278C45.1803 42.194 44.2387 42.7318 43.4852 43.4853C42.7317 44.2387 42.1939 45.1803 41.9278 46.2121L37.2111 64.5032C37.1235 64.8165 36.9357 65.0925 36.6765 65.2891C36.4173 65.4857 36.1009 65.5921 35.7756 65.5921C35.4503 65.5921 35.1339 65.4857 34.8747 65.2891C34.6155 65.0925 34.4277 64.8165 34.34 64.5032L29.6264 46.2121Z" stroke="#215540" stroke-width="5" stroke-linecap="round" stroke-linejoin="round"/>
</svg>
