<svg width="84" height="84" viewBox="0 0 84 84" fill="none" xmlns="http://www.w3.org/2000/svg">
<path fill-rule="evenodd" clip-rule="evenodd" d="M41.7223 9.56136C35.9591 9.56136 30.4318 11.8508 26.3566 15.926C22.2814 20.0013 19.9919 25.5285 19.9919 31.2918C19.9919 37.055 22.2814 42.5822 26.3566 46.6575C30.4318 50.7327 35.9591 53.0221 41.7223 53.0221C47.4856 53.0221 53.0128 50.7327 57.088 46.6575C61.1633 42.5822 63.4527 37.055 63.4527 31.2918C63.4527 25.5285 61.1633 20.0013 57.088 15.926C53.0128 11.8508 47.4856 9.56136 41.7223 9.56136ZM14.7766 31.2918C14.7766 26.8257 15.8867 22.4296 18.007 18.4989C20.1273 14.5682 23.1914 11.2262 26.9237 8.7734C30.656 6.32061 34.9394 4.83398 39.3887 4.44719C43.838 4.06041 48.3137 4.78562 52.4133 6.55758C56.5128 8.32955 60.1076 11.0927 62.8744 14.5985C65.6412 18.1044 67.4932 22.243 68.2638 26.6421C69.0345 31.0412 68.6996 35.5629 67.2893 39.8005C65.879 44.038 63.4375 47.8586 60.1844 50.9186C60.2716 51.0942 60.3437 51.2768 60.4 51.4645L62.66 59.7012C63.7135 63.5501 64.5653 66.648 64.9512 69.054C65.3302 71.4113 65.4067 73.8381 64.089 75.813C63.338 76.936 62.3158 77.8574 61.1128 78.4693C58.9223 79.5819 56.5337 79.036 54.3955 78.2259C52.212 77.4054 49.4722 75.9764 46.1066 74.2206L45.9432 74.1371C43.426 72.8263 42.7688 72.5308 42.1361 72.4648C41.8612 72.4318 41.5834 72.4318 41.3086 72.4648C40.6758 72.5308 40.0221 72.8263 37.5014 74.1371L37.338 74.2206C33.9724 75.9764 31.2326 77.4019 29.0491 78.2259C26.9109 79.036 24.5223 79.5819 22.3318 78.4693C21.1313 77.8495 20.1074 76.9356 19.3557 75.813C18.0379 73.8381 18.1144 71.4113 18.4934 69.054C18.8793 66.648 19.7312 63.5501 20.7881 59.7012L23.0446 51.461C23.1011 51.2745 23.1732 51.0931 23.2602 50.9186C20.5784 48.4017 18.4418 45.3612 16.9826 41.9852C15.5233 38.6092 14.7725 34.9696 14.7766 31.2918ZM27.6758 54.2912L25.8609 60.9181C24.7483 64.9652 23.9799 67.7884 23.6426 69.8814C23.2949 72.0545 23.5557 72.7081 23.6948 72.9133C23.9494 73.2952 24.2946 73.6081 24.6996 73.8242C24.7796 73.8624 25.2768 74.078 27.2099 73.3479C29.0631 72.649 31.5212 71.3695 35.0919 69.5129L35.4501 69.3251C37.4249 68.2925 39.0138 67.465 40.7557 67.2773C41.4001 67.2077 42.0445 67.2077 42.6889 67.2773C44.4273 67.4616 46.0197 68.2925 47.9946 69.3251L48.3527 69.5129C51.9199 71.3695 54.3816 72.649 56.2347 73.3479C58.1679 74.078 58.6685 73.8624 58.745 73.8242C59.1513 73.6086 59.4977 73.2956 59.7533 72.9133C59.8924 72.7047 60.1497 72.0545 59.802 69.8814C59.4647 67.7884 58.6929 64.9652 57.5872 60.9181L55.7688 54.2912C51.5423 56.8817 46.6795 58.2479 41.7223 58.2374C36.7651 58.2479 31.9023 56.8817 27.6758 54.2912Z" fill="#215540"/>
</svg>
