<svg width="40" height="40" viewBox="0 0 40 40" fill="none" xmlns="http://www.w3.org/2000/svg">
<path d="M39.6742 11.0938C39.5595 10.9309 39.4074 10.798 39.2307 10.7062C39.054 10.6144 38.8578 10.5665 38.6586 10.5663H34.7624L26.7492 3.73695C25.7736 2.76133 24.1898 2.76008 23.2142 3.73695L15.3374 10.5663H12.1305L10.1224 3.64133C9.33489 0.914454 7.4636 0.620079 6.6961 0.620079H1.3411C0.654854 0.620079 0.0998535 1.1757 0.0998535 1.86133C0.0998535 2.54695 0.655439 3.10254 1.34106 3.10254H6.69481C6.86419 3.10254 7.38106 3.10254 7.7336 4.32066L14.6417 29.7088C14.7917 30.2444 15.2799 30.6144 15.8367 30.6144H32.7105C33.2342 30.6144 33.7017 30.2862 33.8786 29.7931L39.8261 12.2275C39.963 11.8469 39.9061 11.4231 39.6742 11.0938H39.6742ZM24.9819 5.50508L30.9206 10.567H19.0413L24.9819 5.50508ZM31.8369 28.1325H16.7788L12.8275 13.0494H36.8938L31.8369 28.1325ZM29.375 33.13C27.6488 33.13 26.25 34.5288 26.25 36.255C26.25 37.9813 27.6488 39.38 29.375 39.38C31.1013 39.38 32.5 37.9813 32.5 36.255C32.5 34.5288 31.1013 33.13 29.375 33.13ZM18.125 33.13C16.3988 33.13 15 34.5288 15 36.255C15 37.9813 16.3988 39.38 18.125 39.38C19.8513 39.38 21.25 37.9813 21.25 36.255C21.25 34.5288 19.8513 33.13 18.125 33.13Z" fill="black"/>
</svg>
