<svg width="27" height="27" viewBox="0 0 27 27" fill="none" xmlns="http://www.w3.org/2000/svg">
<path d="M19.7153 14.6747H14.4111V19.9789C14.4111 20.2603 14.2993 20.5301 14.1004 20.7291C13.9014 20.928 13.6316 21.0398 13.3502 21.0398C13.0689 21.0398 12.7991 20.928 12.6001 20.7291C12.4012 20.5301 12.2894 20.2603 12.2894 19.9789V14.6747H6.98516C6.70381 14.6747 6.43398 14.5629 6.23503 14.364C6.03608 14.165 5.92432 13.8952 5.92432 13.6139C5.92432 13.3325 6.03608 13.0627 6.23503 12.8637C6.43398 12.6648 6.70381 12.553 6.98516 12.553H12.2894V7.24877C12.2894 6.96742 12.4012 6.69759 12.6001 6.49864C12.7991 6.29969 13.0689 6.18793 13.3502 6.18793C13.6316 6.18793 13.9014 6.29969 14.1004 6.49864C14.2993 6.69759 14.4111 6.96742 14.4111 7.24877V12.553H19.7153C19.9967 12.553 20.2665 12.6648 20.4655 12.8637C20.6644 13.0627 20.7762 13.3325 20.7762 13.6139C20.7762 13.8952 20.6644 14.165 20.4655 14.364C20.2665 14.5629 19.9967 14.6747 19.7153 14.6747Z" fill="white"/>
</svg>
