<svg width="80" height="80" viewBox="0 0 80 80" fill="none" xmlns="http://www.w3.org/2000/svg">
<path d="M35.1875 49.5094C38.6694 47.5359 41.4001 44.4654 42.9537 40.777C44.5073 37.0886 44.7964 32.9897 43.7759 29.1197C42.7555 25.2497 40.4827 21.8264 37.3124 19.3836C34.142 16.9409 30.2523 15.6162 26.25 15.6162C22.2478 15.6162 18.3581 16.9409 15.1877 19.3836C12.0173 21.8264 9.74464 25.2497 8.72414 29.1197C7.70365 32.9897 7.99275 37.0886 9.54636 40.777C11.1 44.4654 13.8307 47.5359 17.3125 49.5094C10.8593 51.5667 5.31738 55.7947 1.62817 61.4751C1.35633 61.8915 1.26106 62.3989 1.36332 62.8857C1.46559 63.3724 1.75701 63.7985 2.17348 64.0704C2.58996 64.3422 3.09736 64.4375 3.58408 64.3352C4.07079 64.233 4.49695 63.9415 4.7688 63.5251C7.0957 59.9474 10.2793 57.0075 14.0307 54.9724C17.782 52.9373 21.9822 51.8713 26.25 51.8713C30.5179 51.8713 34.7181 52.9373 38.4694 54.9724C42.2208 57.0075 45.4044 59.9474 47.7313 63.5251C48.0209 63.8961 48.4394 64.1448 48.9038 64.2215C49.3682 64.2983 49.8444 64.1976 50.238 63.9394C50.6316 63.6812 50.9136 63.2845 51.0282 62.8279C51.1427 62.3714 51.0814 61.8885 50.8563 61.4751C47.171 55.7976 41.635 51.5699 35.1875 49.5094ZM11.875 33.7501C11.875 30.9069 12.7181 28.1277 14.2977 25.7637C15.8772 23.3998 18.1223 21.5573 20.749 20.4693C23.3757 19.3813 26.266 19.0966 29.0545 19.6513C31.8429 20.2059 34.4043 21.575 36.4147 23.5854C38.4251 25.5958 39.7942 28.1572 40.3488 30.9456C40.9035 33.7341 40.6188 36.6244 39.5308 39.2511C38.4428 41.8778 36.6003 44.1229 34.2364 45.7024C31.8724 47.282 29.0932 48.1251 26.25 48.1251C22.4391 48.1201 18.7856 46.604 16.0909 43.9092C13.3961 41.2145 11.88 37.561 11.875 33.7501ZM77.8125 64.0626C77.3964 64.3341 76.8895 64.4294 76.4032 64.3274C75.9168 64.2255 75.4908 63.9346 75.2188 63.5188C72.896 59.9408 69.7148 57.0009 65.9649 54.9671C62.2151 52.9334 58.0159 51.8704 53.75 51.8751C53.2528 51.8751 52.7759 51.6775 52.4242 51.3259C52.0726 50.9743 51.875 50.4973 51.875 50.0001C51.875 49.5028 52.0726 49.0259 52.4242 48.6742C52.7759 48.3226 53.2528 48.1251 53.75 48.1251C55.8669 48.1229 57.9571 47.6533 59.8714 46.7498C61.7857 45.8462 63.4768 44.531 64.824 42.8982C66.1711 41.2653 67.141 39.3551 67.6643 37.304C68.1877 35.2529 68.2515 33.1115 67.8514 31.0328C67.4513 28.9542 66.597 26.9895 65.3496 25.2793C64.1022 23.569 62.4925 22.1554 60.6355 21.1393C58.7785 20.1232 56.72 19.5298 54.607 19.4015C52.4941 19.2732 50.3789 19.6131 48.4125 20.3969C48.1835 20.4907 47.9382 20.5382 47.6908 20.5367C47.4433 20.5352 47.1986 20.4848 46.9707 20.3883C46.7429 20.2917 46.5364 20.1511 46.3631 19.9743C46.1899 19.7976 46.0534 19.5884 45.9614 19.3586C45.8694 19.1289 45.8238 18.8832 45.8272 18.6358C45.8307 18.3884 45.883 18.1441 45.9813 17.917C46.0796 17.6899 46.2219 17.4845 46.4 17.3126C46.578 17.1408 46.7884 17.0059 47.0188 16.9157C51.2839 15.2153 56.0353 15.197 60.3134 16.8644C64.5914 18.5319 68.0772 21.7609 70.0665 25.8991C72.0559 30.0372 72.4005 34.7762 71.0309 39.1587C69.6612 43.5412 66.6793 47.2405 62.6875 49.5094C69.1408 51.5667 74.6827 55.7947 78.3719 61.4751C78.64 61.8926 78.7317 62.3994 78.6269 62.8844C78.522 63.3694 78.2292 63.7931 77.8125 64.0626Z" fill="#215540"/>
</svg>
