<svg width="80" height="80" viewBox="0 0 80 80" fill="none" xmlns="http://www.w3.org/2000/svg">
<path d="M40 69.4734C39.6978 69.4734 39.3789 69.4456 39.0434 69.39C38.7078 69.3345 38.3967 69.2512 38.11 69.14C31.5478 66.64 26.3334 62.4 22.4667 56.42C18.6 50.44 16.6667 43.9667 16.6667 37V22.7234C16.6667 21.5812 16.9922 20.5523 17.6434 19.6367C18.2922 18.7212 19.1334 18.0578 20.1667 17.6467L38.1167 10.98C38.7656 10.7445 39.3934 10.6267 40 10.6267C40.6067 10.6267 41.2356 10.7445 41.8867 10.98L59.8334 17.6467C60.8645 18.06 61.7056 18.7234 62.3567 19.6367C63.0078 20.5523 63.3334 21.5812 63.3334 22.7234V37C63.3334 43.9667 61.4 50.44 57.5334 56.42C53.6667 62.4 48.4534 66.64 41.8934 69.14C41.6022 69.2512 41.29 69.3345 40.9567 69.39C40.6234 69.4456 40.3045 69.4734 40 69.4734ZM40 66.3334C45.7778 64.5 50.5556 60.8334 54.3334 55.3334C58.1111 49.8334 60 43.7223 60 37V22.66C60 22.2334 59.8822 21.8489 59.6467 21.5067C59.4133 21.1645 59.0822 20.9089 58.6534 20.74L40.7067 14.0734C40.4934 13.9845 40.2578 13.94 40 13.94C39.7422 13.94 39.5067 13.9845 39.2934 14.0734L21.3467 20.74C20.9178 20.9089 20.5867 21.1645 20.3534 21.5067C20.1178 21.8489 20 22.2334 20 22.66V37C20 43.7223 21.8889 49.8334 25.6667 55.3334C29.4445 60.8334 34.2222 64.5 40 66.3334Z" fill="#215540"/>
</svg>
