<svg width="24" height="24" viewBox="0 0 24 24" fill="none" xmlns="http://www.w3.org/2000/svg">
<path d="M19.2465 21.7139C19.6392 21.7139 20.0158 21.5579 20.2934 21.2803C20.5711 21.0026 20.727 20.6261 20.727 20.2334V16.7789C20.727 16.3863 20.5711 16.0097 20.2934 15.7321C20.0158 15.4544 19.6392 15.2984 19.2465 15.2984C18.0918 15.2984 16.9567 15.1208 15.871 14.7556C15.6114 14.6737 15.3344 14.6644 15.0699 14.7288C14.8055 14.7931 14.5637 14.9287 14.3708 15.1208L12.9495 16.542C10.4941 15.2021 8.47604 13.1841 7.13611 10.7286L8.54751 9.31724C8.95218 8.93232 9.10023 8.35986 8.92257 7.80714C8.56725 6.73132 8.38959 5.59627 8.38959 4.44149C8.38959 4.04884 8.23361 3.67227 7.95597 3.39462C7.67832 3.11698 7.30175 2.961 6.9091 2.961H3.45461C3.06196 2.961 2.68539 3.11698 2.40775 3.39462C2.1301 3.67227 1.97412 4.04884 1.97412 4.44149C1.97412 13.966 9.72204 21.7139 19.2465 21.7139ZM3.45461 3.94799H6.9091C7.03998 3.94799 7.16551 3.99999 7.25805 4.09254C7.3506 4.18508 7.4026 4.31061 7.4026 4.44149C7.4026 5.70484 7.6 6.93859 7.98492 8.11311C8.03427 8.25129 8.0244 8.44869 7.86648 8.60661L5.9221 10.5411C7.55065 13.7291 9.93918 16.1176 13.137 17.7659L15.0617 15.8215C15.1999 15.6834 15.3874 15.6439 15.5651 15.6932C16.7494 16.088 17.9832 16.2854 19.2465 16.2854C19.3774 16.2854 19.503 16.3374 19.5955 16.43C19.688 16.5225 19.74 16.648 19.74 16.7789V20.2334C19.74 20.3643 19.688 20.4898 19.5955 20.5824C19.503 20.6749 19.3774 20.7269 19.2465 20.7269C10.2649 20.7269 2.96112 13.4231 2.96112 4.44149C2.96112 4.31061 3.01311 4.18508 3.10566 4.09254C3.19821 3.99999 3.32373 3.94799 3.45461 3.94799Z" fill="#595959"/>
</svg>
