<svg width="24" height="24" viewBox="0 0 24 24" fill="none" xmlns="http://www.w3.org/2000/svg">
<path d="M19.2464 21.7138C19.6391 21.7138 20.0156 21.5579 20.2933 21.2802C20.5709 21.0026 20.7269 20.626 20.7269 20.2333V16.7789C20.7269 16.3862 20.5709 16.0096 20.2933 15.732C20.0156 15.4543 19.6391 15.2984 19.2464 15.2984C18.0916 15.2984 16.9566 15.1207 15.8709 14.7555C15.6113 14.6736 15.3343 14.6643 15.0698 14.7287C14.8053 14.7931 14.5635 14.9286 14.3707 15.1207L12.9494 16.542C10.494 15.2021 8.47592 13.184 7.13599 10.7286L8.54739 9.31718C8.95206 8.93225 9.10011 8.3598 8.92245 7.80708C8.56713 6.73126 8.38947 5.59621 8.38947 4.44143C8.38947 4.04878 8.23349 3.67221 7.95584 3.39456C7.6782 3.11692 7.30163 2.96094 6.90898 2.96094H3.45449C3.06184 2.96094 2.68527 3.11692 2.40763 3.39456C2.12998 3.67221 1.974 4.04878 1.974 4.44143C1.974 13.9659 9.72191 21.7138 19.2464 21.7138ZM3.45449 3.94793H6.90898C7.03986 3.94793 7.16538 3.99993 7.25793 4.09247C7.35048 4.18502 7.40247 4.31055 7.40247 4.44143C7.40247 5.70478 7.59987 6.93853 7.9848 8.11305C8.03415 8.25123 8.02428 8.44863 7.86636 8.60655L5.92198 10.5411C7.55052 13.729 9.93905 16.1176 13.1369 17.7659L15.0616 15.8215C15.1997 15.6833 15.3873 15.6438 15.5649 15.6932C16.7493 16.088 17.9831 16.2854 19.2464 16.2854C19.3773 16.2854 19.5028 16.3374 19.5954 16.4299C19.6879 16.5225 19.7399 16.648 19.7399 16.7789V20.2333C19.7399 20.3642 19.6879 20.4897 19.5954 20.5823C19.5028 20.6748 19.3773 20.7268 19.2464 20.7268C10.2648 20.7268 2.96099 13.4231 2.96099 4.44143C2.96099 4.31055 3.01299 4.18502 3.10554 4.09247C3.19809 3.99993 3.32361 3.94793 3.45449 3.94793Z" fill="#CECECE"/>
</svg>
