<svg width="52" height="52" viewBox="0 0 52 52" fill="none" xmlns="http://www.w3.org/2000/svg">
<path fill-rule="evenodd" clip-rule="evenodd" d="M26.1501 5.87808C22.607 5.87808 19.209 7.28558 16.7036 9.79095C14.1982 12.2963 12.7907 15.6943 12.7907 19.2375C12.7907 22.7806 14.1982 26.1786 16.7036 28.684C19.209 31.1893 22.607 32.5968 26.1501 32.5968C29.6932 32.5968 33.0912 31.1893 35.5966 28.684C38.102 26.1786 39.5095 22.7806 39.5095 19.2375C39.5095 15.6943 38.102 12.2963 35.5966 9.79095C33.0912 7.28558 29.6932 5.87808 26.1501 5.87808ZM9.58448 19.2375C9.58447 16.4918 10.2669 13.7892 11.5705 11.3727C12.874 8.95618 14.7577 6.90158 17.0522 5.39366C19.3468 3.88573 21.9801 2.97178 24.7155 2.734C27.4508 2.49621 30.2024 2.94205 32.7227 4.03142C35.243 5.12078 37.453 6.81951 39.154 8.97483C40.8549 11.1301 41.9935 13.6745 42.4673 16.3789C42.941 19.0834 42.7351 21.8632 41.8681 24.4684C41.0011 27.0736 39.5001 29.4224 37.5002 31.3036C37.5538 31.4116 37.5981 31.5238 37.6328 31.6392L39.0221 36.703C39.6698 39.0692 40.1935 40.9737 40.4307 42.4528C40.6637 43.9021 40.7108 45.394 39.9006 46.6081C39.4389 47.2986 38.8105 47.865 38.0709 48.2412C36.7243 48.9252 35.2559 48.5896 33.9413 48.0916C32.5989 47.5871 30.9146 46.7086 28.8455 45.6292L28.745 45.5779C27.1975 44.772 26.7935 44.5903 26.4045 44.5497C26.2355 44.5295 26.0647 44.5295 25.8957 44.5497C25.5067 44.5903 25.1049 44.772 23.5552 45.5779L23.4547 45.6292C21.3856 46.7086 19.7013 47.585 18.3589 48.0916C17.0444 48.5896 15.5759 48.9252 14.2293 48.2412C13.4912 47.8601 12.8617 47.2983 12.3996 46.6081C11.5895 45.394 11.6365 43.9021 11.8695 42.4528C12.1067 40.9737 12.6304 39.0692 13.2802 36.703L14.6675 31.6371C14.7022 31.5224 14.7465 31.4109 14.8 31.3036C13.1513 29.7563 11.8378 27.887 10.9407 25.8115C10.0435 23.736 9.58196 21.4985 9.58448 19.2375ZM17.5146 33.377L16.3988 37.4511C15.7148 39.9391 15.2424 41.6748 15.0351 42.9616C14.8214 44.2975 14.9817 44.6994 15.0672 44.8255C15.2237 45.0603 15.4359 45.2526 15.6849 45.3855C15.7341 45.409 16.0397 45.5415 17.2282 45.0927C18.3675 44.663 19.8787 43.8764 22.0739 42.735L22.2941 42.6196C23.5082 41.9847 24.485 41.476 25.5559 41.3606C25.952 41.3178 26.3482 41.3178 26.7443 41.3606C27.8131 41.4739 28.7921 41.9847 30.0062 42.6196L30.2263 42.735C32.4194 43.8764 33.9327 44.663 35.072 45.0927C36.2605 45.5415 36.5683 45.409 36.6153 45.3855C36.8651 45.2529 37.078 45.0605 37.2352 44.8255C37.3207 44.6972 37.4789 44.2975 37.2651 42.9616C37.0578 41.6748 36.5832 39.9391 35.9035 37.4511L34.7856 33.377C32.1872 34.9696 29.1977 35.8095 26.1501 35.8031C23.1025 35.8095 20.113 34.9696 17.5146 33.377Z" fill="#215540"/>
</svg>
