<svg width="52" height="52" viewBox="0 0 52 52" fill="none" xmlns="http://www.w3.org/2000/svg">
<path d="M25.6499 4.27502C13.8637 4.27502 4.2749 13.8638 4.2749 25.65C4.2749 37.4362 13.8637 47.025 25.6499 47.025C37.4361 47.025 47.0249 37.4362 47.0249 25.65C47.0249 13.8638 37.4361 4.27502 25.6499 4.27502ZM25.6499 42.75C16.2214 42.75 8.5499 35.0785 8.5499 25.65C8.5499 16.2215 16.2214 8.55002 25.6499 8.55002C35.0784 8.55002 42.7499 16.2215 42.7499 25.65C42.7499 35.0785 35.0784 42.75 25.6499 42.75Z" fill="#215540"/>
<path d="M27.7875 14.9625H23.5125V27.7875H36.3375V23.5125H27.7875V14.9625Z" fill="#215540"/>
</svg>
