<svg width="52" height="52" viewBox="0 0 52 52" fill="none" xmlns="http://www.w3.org/2000/svg">
<path d="M26.1501 29.925C30.8654 29.925 34.7001 26.0903 34.7001 21.375C34.7001 16.6596 30.8654 12.825 26.1501 12.825C21.4348 12.825 17.6001 16.6596 17.6001 21.375C17.6001 26.0903 21.4348 29.925 26.1501 29.925ZM26.1501 17.1C28.5078 17.1 30.4251 19.0173 30.4251 21.375C30.4251 23.7326 28.5078 25.65 26.1501 25.65C23.7924 25.65 21.8751 23.7326 21.8751 21.375C21.8751 19.0173 23.7924 17.1 26.1501 17.1Z" fill="#215540"/>
<path d="M24.9102 46.6274C25.2723 46.8852 25.7056 47.0237 26.15 47.0237C26.5944 47.0237 27.0277 46.8852 27.3897 46.6274C28.0395 46.1679 43.312 35.1405 43.25 21.375C43.25 11.9465 35.5785 4.27502 26.15 4.27502C16.7215 4.27502 9.04999 11.9465 9.04999 21.3643C8.98801 35.1405 24.2604 46.1679 24.9102 46.6274ZM26.15 8.55002C33.223 8.55002 38.975 14.302 38.975 21.3857C39.0199 30.8719 29.5956 39.3899 26.15 42.1836C22.7065 39.3877 13.2801 30.8677 13.325 21.375C13.325 14.302 19.077 8.55002 26.15 8.55002Z" fill="#215540"/>
</svg>
