<svg width="53" height="52" viewBox="0 0 53 52" fill="none" xmlns="http://www.w3.org/2000/svg">
<path d="M42.0022 35.2526C40.7483 33.9978 39.2831 32.9736 37.674 32.2269C39.9433 30.3884 41.391 27.5831 41.391 24.4371C41.391 18.8866 36.7622 14.333 31.2117 14.4182C25.7464 14.5033 21.343 18.9568 21.343 24.4371C21.343 27.5831 22.7958 30.3884 25.0601 32.2269C23.4506 32.973 21.9854 33.9973 20.7319 35.2526C17.9967 37.9928 16.4438 41.6097 16.3436 45.467C16.3422 45.5205 16.3516 45.5736 16.3711 45.6234C16.3907 45.6732 16.42 45.7186 16.4573 45.7569C16.4947 45.7951 16.5393 45.8256 16.5886 45.8463C16.6379 45.8671 16.6908 45.8778 16.7443 45.8778H19.5496C19.765 45.8778 19.9454 45.7074 19.9504 45.492C20.0456 42.5865 21.2228 39.8664 23.2917 37.8025C24.3504 36.7381 25.6097 35.8943 26.9967 35.3199C28.3837 34.7455 29.8708 34.4519 31.372 34.4561C34.4228 34.4561 37.2932 35.6434 39.4523 37.8025C41.5162 39.8664 42.6935 42.5865 42.7937 45.492C42.7987 45.7074 42.979 45.8778 43.1944 45.8778H45.9997C46.0532 45.8778 46.1062 45.8671 46.1555 45.8463C46.2047 45.8256 46.2494 45.7951 46.2867 45.7569C46.3241 45.7186 46.3534 45.6732 46.3729 45.6234C46.3925 45.5736 46.4018 45.5205 46.4005 45.467C46.3003 41.6097 44.7474 37.9928 42.0022 35.2526ZM31.372 30.8493C29.6588 30.8493 28.0457 30.183 26.8384 28.9707C26.2326 28.3696 25.754 27.6526 25.4312 26.8625C25.1085 26.0724 24.9482 25.2254 24.9599 24.372C24.9749 22.7289 25.6312 21.1409 26.7783 19.9637C27.9806 18.7313 29.5887 18.045 31.3069 18.025C33.0051 18.01 34.6532 18.6712 35.8655 19.8585C37.1079 21.0758 37.7892 22.7039 37.7892 24.4371C37.7892 26.1504 37.1229 27.7584 35.9106 28.9707C35.3159 29.5683 34.6085 30.0421 33.8295 30.3645C33.0504 30.687 32.2152 30.8517 31.372 30.8493ZM18.8233 25.7596C18.7782 25.3238 18.7531 24.883 18.7531 24.4371C18.7531 23.6406 18.8283 22.8642 18.9685 22.1077C19.0036 21.9274 18.9084 21.742 18.7431 21.6669C18.0618 21.3613 17.4356 20.9405 16.8946 20.4095C16.2571 19.7914 15.7554 19.0471 15.4216 18.2243C15.0878 17.4014 14.9292 16.518 14.9559 15.6305C15.001 14.0224 15.6472 12.4945 16.7744 11.3423C18.0117 10.0749 19.6749 9.38362 21.4432 9.40366C23.0413 9.41869 24.5842 10.0349 25.7514 11.1269C26.1471 11.4976 26.4878 11.9084 26.7733 12.3492C26.8735 12.5045 27.0689 12.5697 27.2392 12.5095C28.1209 12.204 29.0526 11.9886 30.0094 11.8884C30.29 11.8583 30.4503 11.5577 30.325 11.3073C28.697 8.08616 25.3707 5.86195 21.5234 5.80183C15.9679 5.71667 11.3391 10.2703 11.3391 15.8158C11.3391 18.9618 12.7868 21.7671 15.0561 23.6056C13.4631 24.342 11.9953 25.3589 10.7229 26.6313C7.97772 29.3715 6.42478 32.9883 6.32459 36.8507C6.32325 36.9041 6.33263 36.9573 6.35217 37.0071C6.37171 37.0569 6.40102 37.1023 6.43837 37.1405C6.47571 37.1788 6.52035 37.2092 6.56963 37.23C6.61892 37.2508 6.67187 37.2615 6.72535 37.2614H9.53567C9.75108 37.2614 9.93142 37.0911 9.93643 36.8757C10.0316 33.9702 11.2088 31.25 13.2778 29.1861C14.7505 27.7134 16.554 26.6914 18.5227 26.1955C18.7181 26.1454 18.8483 25.96 18.8233 25.7596Z" fill="#215540"/>
</svg>
